<svg id="Layer_1" data-name="Layer 1" xmlns="http://www.w3.org/2000/svg" viewBox="0 0 288 203.48"><path d="M106.69,0H67.27c-1,0-1.31,1.07-.78,1.87l99.32,100L66.49,201.61c-.53.8-.27,1.87.78,1.87h38.89a4.33,4.33,0,0,0,3.16-1.33l99.85-100.27L109.32,1.34A3.18,3.18,0,0,0,106.69,0Z"/><path d="M185.26,0H145.84c-1.05,0-1.31,1.07-.79,1.87l99.33,100-99.06,99.73c-.53.8-.27,1.87.78,1.87H185a4.33,4.33,0,0,0,3.16-1.33L288,101.88,188.15,1.34A3.63,3.63,0,0,0,185.26,0Z"/><path d="M68.85,159.9,45.72,134.76c-17.08-18.72-17.08-47.59,0-66L68.85,43.58a3.3,3.3,0,0,0,0-4.28l-17.61-19a3,3,0,0,0-4.47,0L20.5,48.93a77.93,77.93,0,0,0,0,105.35L47,183.16a3,3,0,0,0,4.46,0l17.61-19A3.66,3.66,0,0,0,68.85,159.9Z"/></svg>