<svg id="Layer_1" data-name="Layer 1" xmlns="http://www.w3.org/2000/svg" viewBox="0 0 288 203.48"><defs><style>.cls-1{fill:#fff;}</style></defs><path class="cls-1" d="M106.69,0H67.27c-1,0-1.31,1.07-.78,1.87l99.32,100L66.49,201.61c-.53.8-.27,1.87.78,1.87h38.89a4.34,4.34,0,0,0,3.16-1.33l99.85-100.27L109.32,1.34A3.19,3.19,0,0,0,106.69,0Z"/><path class="cls-1" d="M185.26,0H145.84c-1.05,0-1.31,1.07-.79,1.87l99.33,100L145.32,201.6c-.53.8-.27,1.87.78,1.87H185a4.34,4.34,0,0,0,3.16-1.33L288,101.88,188.15,1.34A3.64,3.64,0,0,0,185.26,0Z"/><path class="cls-1" d="M68.85,159.9,45.72,134.76c-17.08-18.72-17.08-47.59,0-66L68.85,43.58a3.3,3.3,0,0,0,0-4.28l-17.61-19A3,3,0,0,0,47,20.07a2.5,2.5,0,0,0-.23.23L20.5,48.93a77.93,77.93,0,0,0,0,105.35L47,183.16a3,3,0,0,0,4.24.22,2.28,2.28,0,0,0,.22-.22l17.61-19A3.65,3.65,0,0,0,68.85,159.9Z"/></svg>