<svg width="198" height="26" viewBox="0 0 198 26" fill="none" xmlns="http://www.w3.org/2000/svg">
<g clip-path="url(#clip0_24209_1154)">
<path d="M104.615 6.82715H107.372V19.1689H104.615V6.82715Z" fill="#0C1947"/>
<path d="M111.894 6.82666H117.301C121.193 6.82666 123.861 9.26186 123.861 12.9998C123.861 16.7378 121.198 19.1684 117.301 19.1684H111.894V6.82666ZM117.181 16.8252C119.547 16.8252 121.091 15.3614 121.091 12.9998C121.091 10.6383 119.547 9.1744 117.181 9.1744H114.664V16.8252H117.181Z" fill="#0C1947"/>
<path d="M151.665 6.82666V19.1684H149.401L143.467 11.6786V19.1684H140.746V6.82666H143.027L148.944 14.321V6.82666H151.665Z" fill="#0C1947"/>
<path d="M158.651 9.15598H154.843V6.82666H165.216V9.15598H161.408V19.1684H158.651V9.15598Z" fill="#0C1947"/>
<path d="M168.394 6.82666H171.151V19.1684H168.394V6.82666Z" fill="#0C1947"/>
<path d="M178.137 9.15598H174.329V6.82666H184.702V9.15598H180.893V19.1684H178.137V9.15598Z" fill="#0C1947"/>
<path d="M193.375 14.7951V19.1684H190.619V14.7629L186.011 6.82666H188.936L192.114 12.3093L195.301 6.82666H198.004L193.375 14.7951Z" fill="#0C1947"/>
<path d="M136.711 16.8947V19.1964H127.643V6.81787H136.711V9.11957H130.364V11.8172H135.77V14.036H130.328V16.8947H136.711Z" fill="#0C1947"/>
<path d="M34.2265 19.1826L31.408 14.8784L28.6249 19.1826H25.5179L29.8545 12.8898L25.7132 6.81787H28.7847L31.4746 10.8136L34.1378 6.81787H37.0806L33.0015 12.8023L37.3736 19.1918L34.2265 19.1826Z" fill="#0C1947"/>
<path d="M10.746 6.81787V19.1826H8.52667L2.68539 11.6653V19.1826H0V6.81787H2.21933L8.06061 14.3306V6.81787H10.746Z" fill="#0C1947"/>
<path d="M23.0323 16.8947V19.1964H13.9685V6.81787H23.0323V9.11957H16.6894V11.8172H22.0913V14.036H16.6539V16.8947H23.0323Z" fill="#0C1947"/>
<path d="M43.1882 9.13764H39.4331V6.83594H49.642V9.13764H45.8869V19.1823H43.1571V9.13764H43.1882Z" fill="#0C1947"/>
</g>
<path d="M74.337 0.000638899H69.4139C69.2818 0.000638899 69.2469 0.130469 69.3129 0.229751L81.7374 12.5254L69.3129 24.7867C69.2469 24.8822 69.2818 25.0159 69.4139 25.0159H74.2749C74.3476 25.016 74.4196 25.0016 74.4863 24.9733C74.5531 24.9451 74.6133 24.9037 74.6632 24.8517L87.1498 12.5254L74.6671 0.164836C74.6303 0.112633 74.5808 0.0702778 74.5232 0.0416071C74.4656 0.0129364 74.4016 -0.00114469 74.337 0.000638899Z" fill="#0C1947"/>
<path d="M84.1601 0.000239857H79.233C79.101 0.000239857 79.07 0.13007 79.1321 0.229352L91.5566 12.525L79.167 24.7863C79.101 24.8818 79.1321 25.0155 79.2641 25.0155H84.1407C84.2133 25.0152 84.2851 25.0005 84.3519 24.9723C84.4186 24.9441 84.4788 24.9029 84.529 24.8513L97 12.525L84.529 0.164437C84.4844 0.111105 84.4279 0.068562 84.364 0.0400923C84.3 0.0116226 84.2303 -0.00201246 84.1601 0.000239857Z" fill="#0C1947"/>
<path d="M69.608 19.6582L66.7193 16.5652C65.6891 15.4561 65.1178 14.0083 65.1178 12.5061C65.1178 11.0039 65.6891 9.55602 66.7193 8.44698L69.608 5.34633C69.6719 5.27296 69.7071 5.1795 69.7071 5.08285C69.7071 4.9862 69.6719 4.89274 69.608 4.81937L67.4065 2.4977C67.3703 2.46133 67.3272 2.43243 67.2795 2.41271C67.2318 2.39298 67.1806 2.38281 67.1289 2.38281C67.0772 2.38281 67.026 2.39298 66.9783 2.41271C66.9306 2.43243 66.8874 2.46133 66.8513 2.4977L63.5627 6.01457C61.9144 7.78181 61 10.0927 61 12.4908C61 14.8889 61.9144 17.1998 63.5627 18.967L66.8823 22.5297C66.9186 22.5673 66.9623 22.5972 67.0107 22.6176C67.0591 22.638 67.1112 22.6486 67.1638 22.6486C67.2165 22.6486 67.2686 22.638 67.317 22.6176C67.3654 22.5972 67.4091 22.5673 67.4453 22.5297L69.6468 20.1966C69.7003 20.1148 69.7254 20.0181 69.7184 19.921C69.7114 19.824 69.6727 19.7318 69.608 19.6582Z" fill="#0C1947"/>
<defs>
<clipPath id="clip0_24209_1154">
<rect width="198" height="26" fill="white"/>
</clipPath>
</defs>
</svg>
